<svg width="48" height="48" viewBox="0 0 48 48" fill="none" xmlns="http://www.w3.org/2000/svg">
<path d="M23.9996 4C12.9542 4 4 12.9873 4 24.0735C4 33.4871 10.4575 41.3864 19.1685 43.556V30.2079H15.0446V24.0735H19.1685V21.4302C19.1685 14.598 22.2492 11.4312 28.9323 11.4312C30.1995 11.4312 32.3858 11.6809 33.2802 11.9298V17.4902C32.8082 17.4404 31.9882 17.4155 30.9699 17.4155C27.6907 17.4155 26.4235 18.6625 26.4235 21.9039V24.0735H32.9562L31.8338 30.2079H26.4235V44C36.3266 42.7996 44 34.3366 44 24.0735C43.9992 12.9873 35.045 4 23.9996 4Z" fill="white"/>
</svg>
