<svg width="48" height="48" viewBox="0 0 48 48" fill="none" xmlns="http://www.w3.org/2000/svg">
<path d="M24.0254 4C29.4613 4 30.1422 4.02337 32.2852 4.125C34.4129 4.21883 35.8685 4.56304 37.1436 5.05566C38.4575 5.56387 39.5759 6.25217 40.6865 7.3623C41.805 8.47252 42.4857 9.59084 42.9785 10.9199C43.4713 12.1867 43.8153 13.6495 43.9092 15.7764C44.003 17.9109 44.0273 18.5913 44.0273 24.0254C44.0273 29.4599 44.003 30.1407 43.9092 32.2754C43.8153 34.4021 43.4713 35.8564 42.9785 37.1309C42.4701 38.4445 41.7817 39.5625 40.6709 40.6729C39.5602 41.7831 38.4419 42.4713 37.1279 42.9795C35.8607 43.4721 34.3972 43.8163 32.2695 43.9102C30.1343 44.004 29.4535 44.0273 24.0176 44.0273C18.5811 44.0273 17.9001 44.004 15.7646 43.9102C13.6371 43.8163 12.1822 43.4721 10.9072 42.9795C9.59306 42.4712 8.47407 41.7832 7.36328 40.6729C6.24474 39.5625 5.56412 38.4445 5.04785 37.123C4.55507 35.8564 4.21108 34.3942 4.11719 32.2676C4.02332 30.1329 4 29.452 4 24.0176C4 18.5835 4.02333 17.9031 4.11719 15.7607C4.21106 13.6339 4.55504 12.1789 5.04785 10.9043C5.56411 9.5908 6.24478 8.47255 7.36328 7.3623C8.47403 6.24421 9.5931 5.56391 10.915 5.04785C12.1822 4.55531 13.645 4.21101 15.7725 4.11719C17.9079 4.02336 18.5889 4 24.0254 4ZM24.0254 7.60449C18.6749 7.60449 18.0408 7.62882 15.9365 7.72266C13.9888 7.80868 12.9247 8.13649 12.2207 8.41016C11.2899 8.76983 10.6249 9.2006 9.9209 9.9043C9.22493 10.6001 8.78652 11.2728 8.42676 12.2031C8.15301 12.9069 7.82431 13.9626 7.73828 15.917C7.64442 18.0203 7.62109 18.6538 7.62109 24.002C7.62109 29.3422 7.64443 29.9761 7.73828 32.0869C7.82433 34.0339 8.15297 35.098 8.42676 35.8018C8.78657 36.7322 9.21695 37.3969 9.9209 38.1006C10.617 38.7964 11.29 39.2341 12.2207 39.5938C12.9247 39.8674 13.981 40.1962 15.9365 40.2822C18.0408 40.3761 18.6749 40.3994 24.0254 40.3994C29.3677 40.3994 30.0014 40.3761 32.1133 40.2822C34.0611 40.1962 35.1251 39.8674 35.8291 39.5938C36.7599 39.2341 37.4249 38.8043 38.1289 38.1006C38.8251 37.4047 39.2632 36.7322 39.623 35.8018C39.8968 35.098 40.2255 34.0418 40.3115 32.0869C40.4054 29.9839 40.4287 29.35 40.4287 24.002C40.4287 18.6616 40.4054 18.0281 40.3115 15.917C40.2255 13.9703 39.8968 12.9069 39.623 12.2031C39.2633 11.2727 38.8328 10.608 38.1289 9.9043C37.4327 9.20837 36.76 8.76985 35.8291 8.41016C35.1251 8.13648 34.0688 7.80867 32.1133 7.72266C30.0092 7.62883 29.3755 7.60449 24.0254 7.60449ZM24.0137 14.0068C29.5381 14.007 34.0204 18.4892 34.0205 24.0137C34.0205 29.5382 29.5382 34.0203 24.0137 34.0205C18.489 34.0205 14.0068 29.5384 14.0068 24.0137C14.007 18.4891 18.4891 14.0068 24.0137 14.0068ZM24.0137 17.5225C20.4295 17.5225 17.5226 20.4296 17.5225 24.0137C17.5225 27.5979 20.4295 30.5049 24.0137 30.5049C27.5977 30.5047 30.5049 27.5977 30.5049 24.0137C30.5048 20.4297 27.5976 17.5227 24.0137 17.5225ZM34.4746 11.2783C35.7264 11.2783 36.7488 12.3 36.749 13.5518C36.749 14.8111 35.7266 15.8262 34.4746 15.8262C33.2154 15.826 32.2012 14.8036 32.2012 13.5518C32.2014 12.2927 33.223 11.2785 34.4746 11.2783Z" fill="white"/>
</svg>
