<svg width="48" height="48" viewBox="0 0 48 48" fill="none" xmlns="http://www.w3.org/2000/svg">
<path fill-rule="evenodd" clip-rule="evenodd" d="M22.2676 41.5605C22.1805 42.0663 21.8661 43.5382 24 42.6387C26.135 41.7389 35.518 35.8567 39.7139 31.0273L40.2393 30.4307C42.78 27.4443 44 24.399 44 21.041C43.9995 12.0919 35.0284 4.81153 24 4.81151C12.9734 4.81151 4.0003 12.0921 4 21.041C4 29.0641 11.1154 35.7839 20.7266 37.0547C21.3778 37.195 22.2638 37.4837 22.4883 38.04C22.6899 38.5455 22.6202 39.338 22.5527 39.8486C22.5527 39.8486 22.3181 41.2595 22.2676 41.5605ZM10.9502 26.209C10.85 26.209 10.7537 26.1703 10.6816 26.1006L10.6758 26.0947C10.6395 26.0587 10.6104 26.0159 10.5908 25.9687C10.5713 25.9217 10.5615 25.8712 10.5615 25.8203V17.1064C10.5615 17.0032 10.6028 16.9041 10.6758 16.831C10.7488 16.7581 10.8479 16.7168 10.9512 16.7168H12.3535C12.4567 16.7168 12.5559 16.7581 12.6289 16.831C12.7019 16.9041 12.7432 17.0032 12.7432 17.1064V24.0273H16.5547C16.7699 24.0273 16.9434 24.2018 16.9434 24.417V25.8193C16.9435 25.9225 16.9029 26.0216 16.8301 26.0947C16.7572 26.1678 16.6579 26.2088 16.5547 26.209H10.9502ZM18.5342 26.209C18.4831 26.209 18.432 26.1992 18.3848 26.1797C18.3375 26.1602 18.294 26.1318 18.2578 26.0957C18.2218 26.0597 18.1934 26.0167 18.1738 25.9697C18.1542 25.9225 18.1436 25.8714 18.1436 25.8203V17.1055C18.1439 17.0023 18.1858 16.9039 18.2588 16.831C18.3319 16.7581 18.4309 16.7168 18.5342 16.7168H19.9365C20.0397 16.7168 20.1389 16.7582 20.2119 16.831C20.2847 16.9038 20.3259 17.0025 20.3262 17.1055V25.8203C20.3262 26.035 20.1517 26.209 19.9365 26.209H18.5342ZM22.0801 26.209C22.0289 26.2091 21.978 26.1992 21.9307 26.1797C21.8835 26.1602 21.8408 26.1316 21.8047 26.0957C21.7686 26.0597 21.7394 26.0168 21.7197 25.9697C21.7001 25.9225 21.6895 25.8715 21.6895 25.8203V17.1055C21.6898 17.0023 21.7316 16.9039 21.8047 16.831C21.8778 16.7582 21.9768 16.7167 22.0801 16.7168H23.4824C23.4874 16.7168 23.4913 16.7178 23.4961 16.7178C23.5028 16.7182 23.5091 16.7181 23.5156 16.7187C23.5225 16.7194 23.5302 16.7201 23.5371 16.7217C23.5423 16.7221 23.5475 16.7229 23.5527 16.7236L23.5752 16.7285L23.5889 16.7324C23.5967 16.7345 23.6047 16.7364 23.6123 16.7392L23.625 16.7441C23.6326 16.7469 23.6402 16.7504 23.6475 16.7539C23.6515 16.7555 23.6552 16.758 23.6592 16.7598C23.666 16.7632 23.6729 16.7674 23.6797 16.7715C23.6837 16.7734 23.6878 16.7757 23.6914 16.7783C23.6982 16.7824 23.7051 16.7874 23.7119 16.792C23.7154 16.7945 23.7197 16.7966 23.7227 16.7998C23.7299 16.8051 23.7366 16.8112 23.7432 16.8174L23.7764 16.8506C23.7871 16.8631 23.7974 16.876 23.8066 16.8896L27.7998 22.2832V17.1055C27.8 17.0025 27.8413 16.9039 27.9141 16.831C27.987 16.7581 28.0863 16.7168 28.1895 16.7168H29.5928C29.6959 16.7168 29.7952 16.7582 29.8682 16.831C29.9409 16.9038 29.9822 17.0026 29.9824 17.1055V25.8203C29.9824 26.035 29.8081 26.2089 29.5928 26.209H28.1895C28.1549 26.209 28.1216 26.2038 28.0898 26.1953C28.0879 26.195 28.0858 26.1943 28.084 26.1943L28.0459 26.1816L28.0273 26.1738C28.021 26.1711 28.0147 26.1675 28.0088 26.164C28.0049 26.1622 28.0017 26.1604 27.998 26.1582C27.99 26.1536 27.9817 26.1486 27.9736 26.1435C27.9336 26.1173 27.8989 26.0839 27.8711 26.0449L23.8721 20.6445V25.8203C23.872 25.8715 23.8624 25.9225 23.8428 25.9697C23.8231 26.0169 23.794 26.0596 23.7578 26.0957C23.7216 26.1318 23.6781 26.1602 23.6309 26.1797C23.5837 26.1991 23.5334 26.209 23.4824 26.209H22.0801ZM31.7344 26.209C31.6342 26.2088 31.5379 26.1702 31.4658 26.1006C31.4279 26.0644 31.3976 26.0208 31.377 25.9726C31.3563 25.9245 31.3457 25.8727 31.3457 25.8203V17.1064C31.3458 17.0064 31.3847 16.9099 31.4541 16.8379C31.4559 16.8356 31.4577 16.8333 31.46 16.831C31.4611 16.8295 31.4633 16.8287 31.4648 16.8271C31.535 16.7595 31.6295 16.7169 31.7344 16.7168H37.3398C37.4429 16.717 37.5414 16.7582 37.6143 16.831C37.6871 16.9041 37.7286 17.0033 37.7285 17.1064V18.5098C37.7283 18.725 37.5546 18.8983 37.3398 18.8984L33.5283 18.8994V20.3721H37.3398C37.443 20.3723 37.5414 20.4133 37.6143 20.4863C37.6871 20.5594 37.7286 20.6585 37.7285 20.7617V22.164C37.7285 22.379 37.5547 22.5536 37.3398 22.5537H33.5283V24.0273H37.3398C37.4429 24.0276 37.5414 24.0687 37.6143 24.1416C37.6871 24.2146 37.7285 24.3138 37.7285 24.417V25.8203C37.7284 25.9233 37.687 26.0218 37.6143 26.0947C37.5414 26.1677 37.4429 26.2087 37.3398 26.209H31.7344Z" fill="white"/>
</svg>
