<svg width="118" height="24" viewBox="0 0 118 24" fill="none" xmlns="http://www.w3.org/2000/svg">
<g clip-path="url(#clip0_3113_1141)">
<path d="M0.304688 12.5337H3.10277V15.0495C3.15365 15.0664 3.20452 15.0833 3.2554 15.1003C3.64543 15.2697 4.06938 15.4137 4.52725 15.5323C5.00208 15.6339 5.50234 15.6848 6.02804 15.6848C6.9777 15.6848 7.71534 15.4984 8.24104 15.1257C8.76674 14.736 9.02959 14.2193 9.02959 13.5756C9.02959 12.9996 8.80913 12.5337 8.36822 12.1779C7.94427 11.8222 7.41009 11.5088 6.76572 11.2377C6.13827 10.9666 5.44299 10.6956 4.67987 10.4245C3.93372 10.1535 3.23844 9.81463 2.59403 9.40805C1.96658 8.98452 1.4324 8.45934 0.991491 7.83252C0.567538 7.20569 0.355562 6.39252 0.355562 5.39299C0.355562 4.63063 0.499705 3.93604 0.787994 3.30922C1.09324 2.66546 1.50871 2.11487 2.03441 1.65746C2.57707 1.20004 3.22148 0.84428 3.96764 0.590161C4.71379 0.336043 5.54474 0.208984 6.46047 0.208984C7.49488 0.208984 8.51237 0.302162 9.51289 0.488515C10.5134 0.674867 11.3105 0.928986 11.904 1.25087V6.40946H9.1059V3.58875C9.05503 3.58875 9.00415 3.58028 8.95328 3.56334C8.5802 3.46169 8.1732 3.38546 7.73229 3.33463C7.30834 3.26687 6.88443 3.23299 6.46047 3.23299C5.64649 3.23299 5.00208 3.39393 4.52725 3.71581C4.06938 4.03769 3.84045 4.46969 3.84045 5.01181C3.84045 5.57087 4.05243 6.02828 4.47638 6.38404C4.91729 6.73981 5.45147 7.06169 6.07892 7.34969C6.72332 7.63769 7.41857 7.92569 8.16473 8.21369C8.92784 8.50169 9.62312 8.85746 10.2506 9.28099C10.895 9.68757 11.4292 10.2043 11.8531 10.8311C12.294 11.4579 12.5145 12.2457 12.5145 13.1944C12.5145 14.1092 12.3449 14.9139 12.0057 15.6085C11.6666 16.2862 11.1917 16.8622 10.5813 17.3365C9.97076 17.7939 9.25004 18.1328 8.4191 18.353C7.58815 18.5902 6.68941 18.7088 5.7228 18.7088C5.07839 18.7088 4.47638 18.6579 3.91676 18.5563C3.3741 18.4546 2.86536 18.3276 2.39053 18.1751C1.93267 18.0226 1.52567 17.8617 1.16955 17.6923C0.813431 17.5229 0.525143 17.3789 0.304688 17.2603V12.5337ZM13.6139 0.564749H19.0066V10.704H19.7697L23.9414 5.6471H27.8333L22.695 11.441L26.0272 15.5577H28.3929V18.353H24.2721L19.8969 13.0928H19.0066V18.353H15.6998V3.36004H13.6139V0.564749ZM36.2331 14.7699H37.1997L39.6671 5.6471H43.0757L39.4636 17.1078C39.1414 18.0565 38.8277 18.9205 38.5225 19.6998C38.2172 20.496 37.8611 21.1822 37.4541 21.7582C37.0471 22.3342 36.5638 22.7746 36.0042 23.0796C35.4615 23.4015 34.7917 23.5624 33.9946 23.5624C33.6046 23.5624 33.2315 23.5116 32.8754 23.4099C32.5362 23.3083 32.2225 23.1812 31.9342 23.0288C31.6459 22.8932 31.3916 22.7408 31.1711 22.5713C30.9507 22.4189 30.7726 22.2749 30.6369 22.1393L32.3412 19.8777C32.5617 20.064 32.8245 20.2335 33.1298 20.3859C33.435 20.5553 33.7233 20.64 33.9946 20.64C34.5034 20.64 34.9019 20.4622 35.1902 20.1064C35.4954 19.7506 35.7837 19.1662 36.0551 18.353H34.249L28.9581 5.6471H32.5447L36.2331 14.7699Z" fill="white"/>
<path d="M54.0442 10.907H48.2954V18.3527H44.8105V0.564453H48.2954V7.80681H54.0442V0.564453H57.5291V18.3527H54.0442V10.907ZM59.3916 11.9997C59.3916 10.9325 59.5527 9.98375 59.8749 9.15363C60.1971 8.32351 60.655 7.62045 61.2485 7.04445C61.842 6.46845 62.5458 6.03645 63.3598 5.74845C64.1907 5.44351 65.115 5.29104 66.1324 5.29104C67.2008 5.29104 68.1504 5.45198 68.9814 5.77387C69.8293 6.09575 70.5415 6.55316 71.1181 7.1461C71.6947 7.7221 72.1271 8.42516 72.4154 9.25528C72.7207 10.0854 72.8733 11.0002 72.8733 11.9997C72.8733 13.067 72.7122 14.0157 72.39 14.8459C72.0678 15.676 71.6099 16.379 71.0164 16.955C70.4228 17.531 69.7106 17.9715 68.8796 18.2765C68.0657 18.5645 67.1499 18.7085 66.1324 18.7085C65.0641 18.7085 64.1059 18.5475 63.258 18.2256C62.4271 17.9037 61.7233 17.4548 61.1468 16.8788C60.5702 16.2859 60.1293 15.5743 59.824 14.7442C59.5357 13.9141 59.3916 12.9993 59.3916 11.9997ZM62.8002 11.9997C62.8002 12.5588 62.8765 13.0755 63.0291 13.5499C63.1817 14.0242 63.4022 14.4393 63.6905 14.795C63.9788 15.1508 64.3264 15.4303 64.7334 15.6336C65.1404 15.82 65.6067 15.9132 66.1324 15.9132C67.116 15.9132 67.913 15.5997 68.5235 14.9729C69.151 14.3461 69.4647 13.355 69.4647 11.9997C69.4647 10.8308 69.1764 9.89057 68.5998 9.17904C68.0233 8.45057 67.2008 8.08634 66.1324 8.08634C65.6576 8.08634 65.2167 8.16257 64.8097 8.31504C64.4027 8.45057 64.0466 8.67928 63.7413 9.00116C63.4531 9.32304 63.2241 9.72963 63.0545 10.2209C62.885 10.7122 62.8002 11.3052 62.8002 11.9997ZM74.456 15.5574H77.6102V8.4421H74.456V5.64681H80.1794L80.5609 7.32398H80.6627C81.1375 6.76492 81.6802 6.29904 82.2907 5.92634C82.9012 5.55363 83.6134 5.36728 84.4274 5.36728C85.4449 5.36728 86.2419 5.73998 86.8185 6.48539C87.412 7.23081 87.7088 8.47598 87.7088 10.2209H84.7326C84.7326 9.61104 84.6394 9.17057 84.4528 8.89951C84.2832 8.61151 84.0034 8.46751 83.6134 8.46751C82.9351 8.46751 82.3839 8.63692 81.96 8.97575C81.553 9.31457 81.2053 9.70422 80.9171 10.1447V15.5574H86.4369V18.3527H74.456V15.5574ZM98.6524 14.8459C98.6524 14.507 98.4404 14.236 98.0165 14.0327C97.6095 13.8294 97.1007 13.643 96.4902 13.4736C95.8797 13.3042 95.2099 13.1348 94.4807 12.9654C93.7515 12.779 93.0817 12.5334 92.4712 12.2285C91.8607 11.9066 91.3435 11.5085 90.9195 11.0341C90.5125 10.5428 90.309 9.91598 90.309 9.15363C90.309 8.52681 90.4447 7.97622 90.716 7.50187C91.0043 7.02751 91.3859 6.6294 91.8607 6.30751C92.3525 5.96869 92.929 5.71457 93.5904 5.54516C94.2687 5.37575 94.9979 5.29104 95.778 5.29104C96.6089 5.29104 97.3381 5.35034 97.9656 5.46893C98.593 5.58751 99.1357 5.73151 99.5936 5.90092C100.068 6.07034 100.467 6.26516 100.789 6.48539C101.128 6.68869 101.417 6.87504 101.654 7.04445L100.255 9.3061C100.001 9.15363 99.7038 9.00116 99.3646 8.84869C99.0424 8.67928 98.6948 8.52681 98.3217 8.39128C97.9656 8.25575 97.584 8.14563 97.177 8.06092C96.787 7.97622 96.397 7.93387 96.0069 7.93387C95.2947 7.93387 94.7181 8.02704 94.2772 8.21339C93.8363 8.39975 93.6158 8.68775 93.6158 9.07739C93.6158 9.38234 93.8193 9.62798 94.2263 9.81434C94.6503 10.0007 95.1675 10.1786 95.778 10.348C96.3885 10.5005 97.0583 10.6699 97.7875 10.8562C98.5167 11.0426 99.1866 11.2882 99.7971 11.5932C100.408 11.8812 100.916 12.2623 101.323 12.7367C101.747 13.211 101.959 13.8209 101.959 14.5663C101.959 15.8539 101.484 16.8703 100.535 17.6157C99.602 18.3442 98.2115 18.7085 96.363 18.7085C94.9047 18.7085 93.6413 18.4967 92.5729 18.0732C91.5215 17.6327 90.6736 17.1245 90.0292 16.5485L91.5554 14.1597C91.7759 14.3461 92.0642 14.5579 92.4203 14.795C92.7934 15.0153 93.2088 15.2186 93.6667 15.4049C94.1246 15.5913 94.6079 15.7522 95.1166 15.8877C95.6423 16.0063 96.1596 16.0656 96.6683 16.0656C97.211 16.0656 97.6773 15.9725 98.0673 15.7861C98.4574 15.5997 98.6524 15.2863 98.6524 14.8459ZM116.973 17.0059C116.752 17.2092 116.464 17.4125 116.108 17.6157C115.769 17.8021 115.362 17.98 114.887 18.1494C114.429 18.3188 113.92 18.4543 113.361 18.556C112.801 18.6576 112.208 18.7085 111.58 18.7085C110.495 18.7085 109.52 18.556 108.655 18.251C107.807 17.9461 107.086 17.5056 106.493 16.9296C105.899 16.3367 105.441 15.6336 105.119 14.8205C104.814 13.9903 104.661 13.0501 104.661 11.9997C104.661 10.8816 104.839 9.90751 105.195 9.07739C105.552 8.23034 106.035 7.52728 106.645 6.96822C107.273 6.40916 108.002 5.9941 108.833 5.72304C109.664 5.43504 110.563 5.29104 111.529 5.29104C112.174 5.29104 112.835 5.37575 113.513 5.54516C114.209 5.71457 114.845 6.01104 115.421 6.43457C115.998 6.84116 116.464 7.39175 116.82 8.08634C117.193 8.78092 117.38 9.66187 117.38 10.7292C117.38 11.4576 117.295 12.2454 117.125 13.0925H107.968C107.985 13.6346 108.095 14.092 108.299 14.4647C108.519 14.8374 108.799 15.1423 109.138 15.3795C109.494 15.6167 109.893 15.7946 110.334 15.9132C110.792 16.0148 111.275 16.0656 111.784 16.0656C112.801 16.0656 113.632 15.947 114.276 15.7099C114.938 15.4727 115.472 15.1847 115.879 14.8459L116.973 17.0059ZM111.478 7.93387C111.037 7.93387 110.622 7.99316 110.232 8.11175C109.842 8.23034 109.486 8.40822 109.164 8.6454C108.858 8.86563 108.604 9.14516 108.4 9.48398C108.197 9.82281 108.078 10.204 108.044 10.6275H114.302C114.302 9.79739 114.064 9.14516 113.59 8.67081C113.132 8.17951 112.428 7.93387 111.478 7.93387Z" fill="#FFDC22"/>
</g>
<defs>
<clipPath id="clip0_3113_1141">
<rect width="118" height="24" fill="white"/>
</clipPath>
</defs>
</svg>
