<?xml version="1.0" encoding="UTF-8"?>
<svg xmlns="http://www.w3.org/2000/svg" width="167" height="34" viewBox="0 0 167 34" fill="none">
  <path d="M0.431248 17.756H4.39125V21.32C4.46325 21.344 4.53525 21.368 4.60725 21.392C5.15925 21.632 5.75925 21.836 6.40725 22.004C7.07925 22.148 7.78725 22.22 8.53125 22.22C9.87525 22.22 10.9192 21.956 11.6632 21.428C12.4072 20.876 12.7792 20.144 12.7792 19.232C12.7792 18.416 12.4672 17.756 11.8432 17.252C11.2432 16.748 10.4872 16.304 9.57525 15.92C8.68725 15.536 7.70325 15.152 6.62325 14.768C5.56725 14.384 4.58325 13.904 3.67125 13.328C2.78325 12.728 2.02725 11.984 1.40325 11.096C0.803248 10.208 0.503248 9.056 0.503248 7.64C0.503248 6.56 0.707248 5.576 1.11525 4.688C1.54725 3.776 2.13525 2.996 2.87925 2.348C3.64725 1.7 4.55925 1.196 5.61525 0.835998C6.67125 0.475998 7.84725 0.295998 9.14325 0.295998C10.6072 0.295998 12.0472 0.427999 13.4632 0.692C14.8792 0.955999 16.0072 1.316 16.8472 1.772V9.08H12.8872V5.084C12.8152 5.084 12.7432 5.072 12.6712 5.048C12.1432 4.904 11.5672 4.796 10.9432 4.724C10.3432 4.628 9.74325 4.58 9.14325 4.58C7.99125 4.58 7.07925 4.808 6.40725 5.264C5.75925 5.72 5.43525 6.332 5.43525 7.1C5.43525 7.892 5.73525 8.54 6.33525 9.044C6.95925 9.548 7.71525 10.004 8.60325 10.412C9.51525 10.82 10.4992 11.228 11.5552 11.636C12.6352 12.044 13.6192 12.548 14.5072 13.148C15.4192 13.724 16.1752 14.456 16.7752 15.344C17.3992 16.232 17.7112 17.348 17.7112 18.692C17.7112 19.988 17.4712 21.128 16.9912 22.112C16.5112 23.072 15.8392 23.888 14.9752 24.56C14.1112 25.208 13.0912 25.688 11.9152 26C10.7392 26.336 9.46725 26.504 8.09925 26.504C7.18725 26.504 6.33525 26.432 5.54325 26.288C4.77525 26.144 4.05525 25.964 3.38325 25.748C2.73525 25.532 2.15925 25.304 1.65525 25.064C1.15125 24.824 0.743248 24.62 0.431248 24.452V17.756ZM19.2672 0.799998H26.8992V15.164H27.9792L33.8832 8H39.3912L32.1192 16.208L36.8352 22.04H40.1832V26H34.3512L28.1592 18.548H26.8992V26H22.2192V4.76H19.2672V0.799998ZM51.2791 20.924H52.6471L56.1391 8H60.9631L55.8511 24.236C55.3951 25.58 54.9511 26.804 54.5191 27.908C54.0871 29.036 53.5831 30.008 53.0071 30.824C52.4311 31.64 51.7471 32.264 50.9551 32.696C50.1871 33.152 49.2391 33.38 48.1111 33.38C47.5591 33.38 47.0311 33.308 46.5271 33.164C46.0471 33.02 45.6031 32.84 45.1951 32.624C44.7871 32.432 44.4271 32.216 44.1151 31.976C43.8031 31.76 43.5511 31.556 43.3591 31.364L45.7711 28.16C46.0831 28.424 46.4551 28.664 46.8871 28.88C47.3191 29.12 47.7271 29.24 48.1111 29.24C48.8311 29.24 49.3951 28.988 49.8031 28.484C50.2351 27.98 50.6431 27.152 51.0271 26H48.4711L40.9831 8H46.0591L51.2791 20.924Z" fill="white"></path>
  <path d="M76.4871 15.452H68.3511V26H63.4191V0.799998H68.3511V11.06H76.4871V0.799998H81.4191V26H76.4871V15.452ZM84.055 17C84.055 15.488 84.283 14.144 84.739 12.968C85.195 11.792 85.843 10.796 86.683 9.98C87.523 9.164 88.519 8.552 89.671 8.144C90.847 7.712 92.155 7.496 93.595 7.496C95.107 7.496 96.451 7.724 97.627 8.18C98.827 8.636 99.835 9.284 100.651 10.124C101.467 10.94 102.079 11.936 102.487 13.112C102.919 14.288 103.135 15.584 103.135 17C103.135 18.512 102.907 19.856 102.451 21.032C101.995 22.208 101.347 23.204 100.507 24.02C99.667 24.836 98.659 25.46 97.483 25.892C96.331 26.3 95.035 26.504 93.595 26.504C92.083 26.504 90.727 26.276 89.527 25.82C88.351 25.364 87.355 24.728 86.539 23.912C85.723 23.072 85.099 22.064 84.667 20.888C84.259 19.712 84.055 18.416 84.055 17ZM88.879 17C88.879 17.792 88.987 18.524 89.203 19.196C89.419 19.868 89.731 20.456 90.139 20.96C90.547 21.464 91.039 21.86 91.615 22.148C92.191 22.412 92.851 22.544 93.595 22.544C94.987 22.544 96.115 22.1 96.979 21.212C97.867 20.324 98.311 18.92 98.311 17C98.311 15.344 97.903 14.012 97.087 13.004C96.271 11.972 95.107 11.456 93.595 11.456C92.923 11.456 92.299 11.564 91.723 11.78C91.147 11.972 90.643 12.296 90.211 12.752C89.803 13.208 89.479 13.784 89.239 14.48C88.999 15.176 88.879 16.016 88.879 17ZM105.375 22.04H109.839V11.96H105.375V8H113.475L114.015 10.376H114.159C114.831 9.584 115.599 8.924 116.463 8.396C117.327 7.868 118.335 7.604 119.487 7.604C120.927 7.604 122.055 8.132 122.871 9.188C123.711 10.244 124.131 12.008 124.131 14.48H119.919C119.919 13.616 119.787 12.992 119.523 12.608C119.283 12.2 118.887 11.996 118.335 11.996C117.375 11.996 116.595 12.236 115.995 12.716C115.419 13.196 114.927 13.748 114.519 14.372V22.04H122.331V26H105.375V22.04ZM139.619 21.032C139.619 20.552 139.319 20.168 138.719 19.88C138.143 19.592 137.423 19.328 136.559 19.088C135.695 18.848 134.747 18.608 133.715 18.368C132.683 18.104 131.735 17.756 130.871 17.324C130.007 16.868 129.275 16.304 128.675 15.632C128.099 14.936 127.811 14.048 127.811 12.968C127.811 12.08 128.003 11.3 128.387 10.628C128.795 9.956 129.335 9.392 130.007 8.936C130.703 8.456 131.519 8.096 132.455 7.856C133.415 7.616 134.447 7.496 135.551 7.496C136.727 7.496 137.759 7.58 138.647 7.748C139.535 7.916 140.303 8.12 140.951 8.36C141.623 8.6 142.187 8.876 142.643 9.188C143.123 9.476 143.531 9.74 143.867 9.98L141.887 13.184C141.527 12.968 141.107 12.752 140.627 12.536C140.171 12.296 139.679 12.08 139.151 11.888C138.647 11.696 138.107 11.54 137.531 11.42C136.979 11.3 136.427 11.24 135.875 11.24C134.867 11.24 134.051 11.372 133.427 11.636C132.803 11.9 132.491 12.308 132.491 12.86C132.491 13.292 132.779 13.64 133.355 13.904C133.955 14.168 134.687 14.42 135.551 14.66C136.415 14.876 137.363 15.116 138.395 15.38C139.427 15.644 140.375 15.992 141.239 16.424C142.103 16.832 142.823 17.372 143.399 18.044C143.999 18.716 144.299 19.58 144.299 20.636C144.299 22.46 143.627 23.9 142.283 24.956C140.963 25.988 138.995 26.504 136.379 26.504C134.315 26.504 132.527 26.204 131.015 25.604C129.527 24.98 128.327 24.26 127.415 23.444L129.575 20.06C129.887 20.324 130.295 20.624 130.799 20.96C131.327 21.272 131.915 21.56 132.563 21.824C133.211 22.088 133.895 22.316 134.615 22.508C135.359 22.676 136.091 22.76 136.811 22.76C137.579 22.76 138.239 22.628 138.791 22.364C139.343 22.1 139.619 21.656 139.619 21.032ZM165.547 24.092C165.235 24.38 164.827 24.668 164.323 24.956C163.843 25.22 163.267 25.472 162.595 25.712C161.947 25.952 161.227 26.144 160.435 26.288C159.643 26.432 158.803 26.504 157.915 26.504C156.379 26.504 154.999 26.288 153.775 25.856C152.575 25.424 151.555 24.8 150.715 23.984C149.875 23.144 149.227 22.148 148.771 20.996C148.339 19.82 148.123 18.488 148.123 17C148.123 15.416 148.375 14.036 148.879 12.86C149.383 11.66 150.067 10.664 150.931 9.872C151.819 9.08 152.851 8.492 154.027 8.108C155.203 7.7 156.475 7.496 157.843 7.496C158.755 7.496 159.691 7.616 160.651 7.856C161.635 8.096 162.535 8.516 163.351 9.116C164.167 9.692 164.827 10.472 165.331 11.456C165.859 12.44 166.123 13.688 166.123 15.2C166.123 16.232 166.003 17.348 165.763 18.548H152.803C152.827 19.316 152.983 19.964 153.271 20.492C153.583 21.02 153.979 21.452 154.459 21.788C154.963 22.124 155.527 22.376 156.151 22.544C156.799 22.688 157.483 22.76 158.203 22.76C159.643 22.76 160.819 22.592 161.731 22.256C162.667 21.92 163.423 21.512 163.999 21.032L165.547 24.092ZM157.771 11.24C157.147 11.24 156.559 11.324 156.007 11.492C155.455 11.66 154.951 11.912 154.495 12.248C154.063 12.56 153.703 12.956 153.415 13.436C153.127 13.916 152.959 14.456 152.911 15.056H161.767C161.767 13.88 161.431 12.956 160.759 12.284C160.111 11.588 159.115 11.24 157.771 11.24Z" fill="#FFDC22"></path>
</svg>
